
Complete name                    : Angels.in.America 2003.EP 1-3.mkv
Format                           : Matroska
File size                        : 1.57 GiB
Duration                         : 2h 40mn
Overall bit rate                 : 1 408 Kbps
Writing application              : HandBrake svn3507
Writing library                  : libmkv 0.6.4.1

Video

Format                           : AVC
Duration                         : 2h 40mn
Bit rate                         : 996 Kbps
Width                            : 720 pixels
Height                           : 576 pixels
Display aspect ratio             : 16:9
Stream size                      : 1.11 GiB (71%)
Writing library                  : x264 core 104

Format                           : AC-3
Duration                         : 2h 40mn
Bit rate                         : 384 Kbps
Channel(s)                       : 6 channels
Channel positions                : Front: L C R, Side: L R, LFE
Sampling rate                    : 48.0 KHz
Bit depth                        : 16 bits
Stream size                      : 440 MiB (27%)
Language                         : English

Subtitles: 

English, Danish, Dutch, Finnish, Norwegian, Polish, Greek, 

Icelandic, Swedish, Hebrew, Portugues


**************** Menu ***********************

00:00:00.000.....................: Episode  1

00:59:14.680.....................: Episode  2

01:45:37.840.....................: Episode  3

#######################################################################


Complete name                    : Angels.in.America 2003.EP 4-6.mkv
Format                           : Matroska
File size                        : 2.01 GiB
Duration                         : 2h 57mn
Overall bit rate                 : 1 618 Kbps
Writing application              : HandBrake svn3507
Writing library                  : libmkv 0.6.4.1

Video

Format                           : AVC
Duration                         : 2h 57mn
Bit rate                         : 1 202 Kbps
Width                            : 720 pixels
Height                           : 576 pixels
Display aspect ratio             : 16:9
Stream size                      : 1.49 GiB (74%)
Writing library                  : x264 core 104

Audio

Format                           : AC-3
Duration                         : 2h 57mn
Bit rate                         : 384 Kbps
Channel(s)                       : 6 channels
Channel positions                : Front: L C R, Side: L R, LFE
Sampling rate                    : 48.0 KHz
Bit depth                        : 16 bits
Stream size                      : 487 MiB (24%)
Language                         : English


Subtitles: 

English, Danish, Dutch, Finnish, Norwegian, Polish, Greek, 

Icelandic, Swedish, Hebrew, Portugues


****************** Menu *************************

00:00:00.000                     : Episode  4

00:51:05.280                     : Episode  5

01:45:33.880                     : Episode  6

 
http://en.wikipedia.org/wiki/Angels_in_America_%28TV_miniseries%29